<mxfile host="app.diagrams.net" modified="2021-09-29T13:36:50.532Z" agent="5.0 (Windows NT 10.0; Win64; x64) AppleWebKit/537.36 (KHTML, like Gecko) Chrome/94.0.4606.61 Safari/537.36 Edg/94.0.992.31" etag="PmHwXRiiS6kZ9LwmQ_JY" version="15.3.8" type="github">
  <diagram id="bdfmL1RfFqFF03tqhIrQ" name="Page-1">
    <mxGraphModel dx="981" dy="526" grid="1" gridSize="10" guides="1" tooltips="1" connect="1" arrows="1" fold="1" page="1" pageScale="1" pageWidth="850" pageHeight="1100" math="0" shadow="0">
      <root>
        <mxCell id="0" />
        <mxCell id="1" parent="0" />
        <mxCell id="JRXkXNT51RQTeY8iz1_f-3" value="Player" style="swimlane;fontStyle=1;align=center;verticalAlign=top;childLayout=stackLayout;horizontal=1;startSize=26;horizontalStack=0;resizeParent=1;resizeParentMax=0;resizeLast=0;collapsible=1;marginBottom=0;fillColor=#dae8fc;strokeColor=#6c8ebf;" parent="1" vertex="1">
          <mxGeometry x="458" y="360" width="140" height="170" as="geometry">
            <mxRectangle x="40" y="40" width="70" height="26" as="alternateBounds" />
          </mxGeometry>
        </mxCell>
        <mxCell id="JRXkXNT51RQTeY8iz1_f-4" value="- Score : int&#xa;- Name : string" style="text;strokeColor=#6c8ebf;fillColor=#dae8fc;align=left;verticalAlign=top;spacingLeft=4;spacingRight=4;overflow=hidden;rotatable=0;points=[[0,0.5],[1,0.5]];portConstraint=eastwest;" parent="JRXkXNT51RQTeY8iz1_f-3" vertex="1">
          <mxGeometry y="26" width="140" height="44" as="geometry" />
        </mxCell>
        <mxCell id="JRXkXNT51RQTeY8iz1_f-5" value="" style="line;strokeWidth=1;fillColor=#dae8fc;align=left;verticalAlign=middle;spacingTop=-1;spacingLeft=3;spacingRight=3;rotatable=0;labelPosition=right;points=[];portConstraint=eastwest;strokeColor=#6c8ebf;" parent="JRXkXNT51RQTeY8iz1_f-3" vertex="1">
          <mxGeometry y="70" width="140" height="8" as="geometry" />
        </mxCell>
        <mxCell id="JRXkXNT51RQTeY8iz1_f-6" value="+ GetName() : String&#xa;+ SetName(String) :&#xa;+ GetScore() : Int&#xa;+ SetScore(Int) :&#xa;+ AddScore(Int) :&#xa;+ ResetScore() :&#xa;" style="text;strokeColor=#6c8ebf;fillColor=#dae8fc;align=left;verticalAlign=top;spacingLeft=4;spacingRight=4;overflow=hidden;rotatable=0;points=[[0,0.5],[1,0.5]];portConstraint=eastwest;" parent="JRXkXNT51RQTeY8iz1_f-3" vertex="1">
          <mxGeometry y="78" width="140" height="92" as="geometry" />
        </mxCell>
        <mxCell id="W8-WtjujgNPqs9zurn6H-3" value="Main" style="swimlane;fontStyle=1;align=center;verticalAlign=top;childLayout=stackLayout;horizontal=1;startSize=26;horizontalStack=0;resizeParent=1;resizeParentMax=0;resizeLast=0;collapsible=1;marginBottom=0;fillColor=#ffe6cc;strokeColor=#d79b00;" vertex="1" parent="1">
          <mxGeometry x="253" y="200" width="140" height="190" as="geometry">
            <mxRectangle x="40" y="40" width="70" height="26" as="alternateBounds" />
          </mxGeometry>
        </mxCell>
        <mxCell id="W8-WtjujgNPqs9zurn6H-4" value="- PLayers : List[player]&#xa;- Die : List[Dice]&#xa;- RoundScore : int&#xa;" style="text;strokeColor=#d79b00;fillColor=#ffe6cc;align=left;verticalAlign=top;spacingLeft=4;spacingRight=4;overflow=hidden;rotatable=0;points=[[0,0.5],[1,0.5]];portConstraint=eastwest;" vertex="1" parent="W8-WtjujgNPqs9zurn6H-3">
          <mxGeometry y="26" width="140" height="54" as="geometry" />
        </mxCell>
        <mxCell id="W8-WtjujgNPqs9zurn6H-5" value="" style="line;strokeWidth=1;fillColor=#ffe6cc;align=left;verticalAlign=middle;spacingTop=-1;spacingLeft=3;spacingRight=3;rotatable=0;labelPosition=right;points=[];portConstraint=eastwest;strokeColor=#d79b00;" vertex="1" parent="W8-WtjujgNPqs9zurn6H-3">
          <mxGeometry y="80" width="140" height="8" as="geometry" />
        </mxCell>
        <mxCell id="W8-WtjujgNPqs9zurn6H-6" value="+ Reset() : &#xa;+ PlayAgain() :&#xa;+ PlayRound() : &#xa;+ IsWinner() : Boolean&#xa;+ Win(Player) : &#xa;+ MainLoop() : " style="text;strokeColor=#d79b00;fillColor=#ffe6cc;align=left;verticalAlign=top;spacingLeft=4;spacingRight=4;overflow=hidden;rotatable=0;points=[[0,0.5],[1,0.5]];portConstraint=eastwest;fontStyle=0" vertex="1" parent="W8-WtjujgNPqs9zurn6H-3">
          <mxGeometry y="88" width="140" height="102" as="geometry" />
        </mxCell>
        <mxCell id="W8-WtjujgNPqs9zurn6H-7" value="Dice" style="swimlane;fontStyle=1;align=center;verticalAlign=top;childLayout=stackLayout;horizontal=1;startSize=26;horizontalStack=0;resizeParent=1;resizeParentMax=0;resizeLast=0;collapsible=1;marginBottom=0;fillColor=#dae8fc;strokeColor=#6c8ebf;" vertex="1" parent="1">
          <mxGeometry x="458" y="200" width="140" height="90" as="geometry">
            <mxRectangle x="40" y="40" width="70" height="26" as="alternateBounds" />
          </mxGeometry>
        </mxCell>
        <mxCell id="W8-WtjujgNPqs9zurn6H-8" value="- Sides : int" style="text;strokeColor=#6c8ebf;fillColor=#dae8fc;align=left;verticalAlign=top;spacingLeft=4;spacingRight=4;overflow=hidden;rotatable=0;points=[[0,0.5],[1,0.5]];portConstraint=eastwest;" vertex="1" parent="W8-WtjujgNPqs9zurn6H-7">
          <mxGeometry y="26" width="140" height="24" as="geometry" />
        </mxCell>
        <mxCell id="W8-WtjujgNPqs9zurn6H-9" value="" style="line;strokeWidth=1;fillColor=#dae8fc;align=left;verticalAlign=middle;spacingTop=-1;spacingLeft=3;spacingRight=3;rotatable=0;labelPosition=right;points=[];portConstraint=eastwest;strokeColor=#6c8ebf;" vertex="1" parent="W8-WtjujgNPqs9zurn6H-7">
          <mxGeometry y="50" width="140" height="8" as="geometry" />
        </mxCell>
        <mxCell id="W8-WtjujgNPqs9zurn6H-10" value="+ Roll() : Random int" style="text;strokeColor=#6c8ebf;fillColor=#dae8fc;align=left;verticalAlign=top;spacingLeft=4;spacingRight=4;overflow=hidden;rotatable=0;points=[[0,0.5],[1,0.5]];portConstraint=eastwest;" vertex="1" parent="W8-WtjujgNPqs9zurn6H-7">
          <mxGeometry y="58" width="140" height="32" as="geometry" />
        </mxCell>
        <mxCell id="W8-WtjujgNPqs9zurn6H-11" value="" style="endArrow=classic;html=1;exitX=1;exitY=0.5;exitDx=0;exitDy=0;entryX=-0.008;entryY=0.117;entryDx=0;entryDy=0;entryPerimeter=0;" edge="1" parent="1" source="W8-WtjujgNPqs9zurn6H-4" target="W8-WtjujgNPqs9zurn6H-7">
          <mxGeometry width="50" height="50" relative="1" as="geometry">
            <mxPoint x="410" y="390" as="sourcePoint" />
            <mxPoint x="460" y="340" as="targetPoint" />
            <Array as="points">
              <mxPoint x="420" y="253" />
              <mxPoint x="420" y="211" />
            </Array>
          </mxGeometry>
        </mxCell>
        <mxCell id="W8-WtjujgNPqs9zurn6H-12" value="" style="endArrow=classic;html=1;exitX=1.003;exitY=0.697;exitDx=0;exitDy=0;exitPerimeter=0;entryX=-0.008;entryY=0.078;entryDx=0;entryDy=0;entryPerimeter=0;" edge="1" parent="1" source="W8-WtjujgNPqs9zurn6H-4" target="JRXkXNT51RQTeY8iz1_f-3">
          <mxGeometry width="50" height="50" relative="1" as="geometry">
            <mxPoint x="400" y="340" as="sourcePoint" />
            <mxPoint x="450" y="290" as="targetPoint" />
            <Array as="points">
              <mxPoint x="420" y="264" />
              <mxPoint x="420" y="373" />
            </Array>
          </mxGeometry>
        </mxCell>
        <mxCell id="W8-WtjujgNPqs9zurn6H-13" value="1 to Many" style="edgeLabel;html=1;align=center;verticalAlign=middle;resizable=0;points=[];" vertex="1" connectable="0" parent="W8-WtjujgNPqs9zurn6H-12">
          <mxGeometry x="0.352" y="2" relative="1" as="geometry">
            <mxPoint x="3" y="-34" as="offset" />
          </mxGeometry>
        </mxCell>
        <mxCell id="W8-WtjujgNPqs9zurn6H-14" value="1 to Many" style="edgeLabel;html=1;align=center;verticalAlign=middle;resizable=0;points=[];" vertex="1" connectable="0" parent="1">
          <mxGeometry x="425" y="229.99925916569785" as="geometry" />
        </mxCell>
      </root>
    </mxGraphModel>
  </diagram>
</mxfile>
